<svg width="441" height="60" viewBox="0 0 441 60" fill="none" xmlns="http://www.w3.org/2000/svg">
<path d="M82.88 17.052H88.496V42H82.88V17.052ZM85.652 14.64C84.884 14.64 84.212 14.388 83.636 13.884C83.084 13.38 82.808 12.696 82.808 11.832C82.808 10.968 83.084 10.284 83.636 9.78C84.212 9.276 84.884 9.024 85.652 9.024C86.42 9.024 87.08 9.276 87.632 9.78C88.208 10.284 88.496 10.968 88.496 11.832C88.496 12.696 88.208 13.38 87.632 13.884C87.08 14.388 86.42 14.64 85.652 14.64ZM109.319 17.052H114.935V42H109.319V31.416H99.8866V42H94.2706V17.052H99.8866V26.592H109.319V17.052ZM137.412 42C137.148 41.136 136.848 40.248 136.512 39.336C136.2 38.424 135.888 37.512 135.576 36.6H125.856C125.544 37.512 125.22 38.424 124.884 39.336C124.572 40.248 124.284 41.136 124.02 42H118.188C119.124 39.312 120.012 36.828 120.852 34.548C121.692 32.268 122.508 30.12 123.3 28.104C124.116 26.088 124.908 24.18 125.676 22.38C126.468 20.556 127.284 18.78 128.124 17.052H133.488C134.304 18.78 135.108 20.556 135.9 22.38C136.692 24.18 137.484 26.088 138.276 28.104C139.092 30.12 139.92 32.268 140.76 34.548C141.6 36.828 142.488 39.312 143.424 42H137.412ZM130.68 22.704C130.56 23.064 130.38 23.556 130.14 24.18C129.9 24.804 129.624 25.524 129.312 26.34C129 27.156 128.652 28.056 128.268 29.04C127.908 30.024 127.536 31.056 127.152 32.136H134.244C133.86 31.056 133.488 30.024 133.128 29.04C132.768 28.056 132.42 27.156 132.084 26.34C131.772 25.524 131.496 24.804 131.256 24.18C131.016 23.556 130.824 23.064 130.68 22.704ZM170.026 42C169.522 41.184 168.922 40.308 168.226 39.372C167.554 38.412 166.81 37.464 165.994 36.528C165.202 35.568 164.374 34.656 163.51 33.792C162.646 32.904 161.782 32.124 160.918 31.452V42H155.302V17.052H160.918V26.484C162.382 24.948 163.846 23.352 165.31 21.696C166.798 20.016 168.178 18.468 169.45 17.052H176.11C174.406 19.068 172.69 21.012 170.962 22.884C169.258 24.756 167.458 26.64 165.562 28.536C167.554 30.192 169.474 32.16 171.322 34.44C173.194 36.72 174.982 39.24 176.686 42H170.026ZM184.915 42H179.551V23.064H184.915V42ZM185.419 17.592C185.419 18.576 185.095 19.356 184.447 19.932C183.823 20.484 183.079 20.76 182.215 20.76C181.351 20.76 180.595 20.484 179.947 19.932C179.323 19.356 179.011 18.576 179.011 17.592C179.011 16.608 179.323 15.84 179.947 15.288C180.595 14.712 181.351 14.424 182.215 14.424C183.079 14.424 183.823 14.712 184.447 15.288C185.095 15.84 185.419 16.608 185.419 17.592ZM201.37 27.816C200.89 27.696 200.326 27.576 199.678 27.456C199.03 27.312 198.334 27.24 197.59 27.24C197.254 27.24 196.846 27.276 196.366 27.348C195.91 27.396 195.562 27.456 195.322 27.528V42H189.958V24.072C190.918 23.736 192.046 23.424 193.342 23.136C194.662 22.824 196.126 22.668 197.734 22.668C198.022 22.668 198.37 22.692 198.778 22.74C199.186 22.764 199.594 22.812 200.002 22.884C200.41 22.932 200.818 23.004 201.226 23.1C201.634 23.172 201.982 23.268 202.27 23.388L201.37 27.816ZM212.029 38.256C212.557 38.256 213.061 38.244 213.541 38.22C214.021 38.196 214.405 38.16 214.693 38.112V34.044C214.477 33.996 214.153 33.948 213.721 33.9C213.289 33.852 212.893 33.828 212.533 33.828C212.029 33.828 211.549 33.864 211.093 33.936C210.661 33.984 210.277 34.092 209.941 34.26C209.605 34.428 209.341 34.656 209.149 34.944C208.957 35.232 208.861 35.592 208.861 36.024C208.861 36.864 209.137 37.452 209.689 37.788C210.265 38.1 211.045 38.256 212.029 38.256ZM211.597 22.56C213.181 22.56 214.501 22.74 215.557 23.1C216.613 23.46 217.453 23.976 218.077 24.648C218.725 25.32 219.181 26.136 219.445 27.096C219.709 28.056 219.841 29.124 219.841 30.3V41.46C219.073 41.628 218.005 41.82 216.637 42.036C215.269 42.276 213.613 42.396 211.669 42.396C210.445 42.396 209.329 42.288 208.321 42.072C207.337 41.856 206.485 41.508 205.765 41.028C205.045 40.524 204.493 39.876 204.109 39.084C203.725 38.292 203.533 37.32 203.533 36.168C203.533 35.064 203.749 34.128 204.181 33.36C204.637 32.592 205.237 31.98 205.981 31.524C206.725 31.068 207.577 30.744 208.537 30.552C209.497 30.336 210.493 30.228 211.525 30.228C212.221 30.228 212.833 30.264 213.361 30.336C213.913 30.384 214.357 30.456 214.693 30.552V30.048C214.693 29.136 214.417 28.404 213.865 27.852C213.313 27.3 212.353 27.024 210.985 27.024C210.073 27.024 209.173 27.096 208.285 27.24C207.397 27.36 206.629 27.54 205.981 27.78L205.297 23.46C205.609 23.364 205.993 23.268 206.449 23.172C206.929 23.052 207.445 22.956 207.997 22.884C208.549 22.788 209.125 22.716 209.725 22.668C210.349 22.596 210.973 22.56 211.597 22.56ZM232.252 42.36C230.692 42.336 229.42 42.168 228.436 41.856C227.476 41.544 226.708 41.112 226.132 40.56C225.58 39.984 225.196 39.3 224.98 38.508C224.788 37.692 224.692 36.78 224.692 35.772V14.928L230.056 14.064V34.692C230.056 35.172 230.092 35.604 230.164 35.988C230.236 36.372 230.368 36.696 230.56 36.96C230.776 37.224 231.076 37.44 231.46 37.608C231.844 37.776 232.36 37.884 233.008 37.932L232.252 42.36ZM243.846 38.256C244.374 38.256 244.878 38.244 245.358 38.22C245.838 38.196 246.222 38.16 246.51 38.112V34.044C246.294 33.996 245.97 33.948 245.538 33.9C245.106 33.852 244.71 33.828 244.35 33.828C243.846 33.828 243.366 33.864 242.91 33.936C242.478 33.984 242.094 34.092 241.758 34.26C241.422 34.428 241.158 34.656 240.966 34.944C240.774 35.232 240.678 35.592 240.678 36.024C240.678 36.864 240.954 37.452 241.506 37.788C242.082 38.1 242.862 38.256 243.846 38.256ZM243.414 22.56C244.998 22.56 246.318 22.74 247.374 23.1C248.43 23.46 249.27 23.976 249.894 24.648C250.542 25.32 250.998 26.136 251.262 27.096C251.526 28.056 251.658 29.124 251.658 30.3V41.46C250.89 41.628 249.822 41.82 248.454 42.036C247.086 42.276 245.43 42.396 243.486 42.396C242.262 42.396 241.146 42.288 240.138 42.072C239.154 41.856 238.302 41.508 237.582 41.028C236.862 40.524 236.31 39.876 235.926 39.084C235.542 38.292 235.35 37.32 235.35 36.168C235.35 35.064 235.566 34.128 235.998 33.36C236.454 32.592 237.054 31.98 237.798 31.524C238.542 31.068 239.394 30.744 240.354 30.552C241.314 30.336 242.31 30.228 243.342 30.228C244.038 30.228 244.65 30.264 245.178 30.336C245.73 30.384 246.174 30.456 246.51 30.552V30.048C246.51 29.136 246.234 28.404 245.682 27.852C245.13 27.3 244.17 27.024 242.802 27.024C241.89 27.024 240.99 27.096 240.102 27.24C239.214 27.36 238.446 27.54 237.798 27.78L237.114 23.46C237.426 23.364 237.81 23.268 238.266 23.172C238.746 23.052 239.262 22.956 239.814 22.884C240.366 22.788 240.942 22.716 241.542 22.668C242.166 22.596 242.79 22.56 243.414 22.56ZM266.912 31.956C266.912 30.228 266.684 29.004 266.228 28.284C265.796 27.564 265.04 27.204 263.96 27.204C263.624 27.204 263.276 27.228 262.916 27.276C262.556 27.3 262.208 27.336 261.872 27.384V42H256.508V23.712C256.964 23.592 257.492 23.472 258.092 23.352C258.716 23.208 259.364 23.088 260.036 22.992C260.732 22.872 261.44 22.788 262.16 22.74C262.88 22.668 263.588 22.632 264.284 22.632C265.652 22.632 266.756 22.812 267.596 23.172C268.46 23.508 269.168 23.916 269.72 24.396C270.488 23.844 271.364 23.412 272.348 23.1C273.356 22.788 274.28 22.632 275.12 22.632C276.632 22.632 277.868 22.848 278.828 23.28C279.812 23.688 280.592 24.276 281.168 25.044C281.744 25.812 282.14 26.724 282.356 27.78C282.572 28.836 282.68 30.012 282.68 31.308V42H277.316V31.956C277.316 30.228 277.088 29.004 276.632 28.284C276.2 27.564 275.444 27.204 274.364 27.204C274.076 27.204 273.668 27.276 273.14 27.42C272.636 27.564 272.216 27.744 271.88 27.96C272.048 28.512 272.156 29.1 272.204 29.724C272.252 30.324 272.276 30.972 272.276 31.668V42H266.912V31.956ZM294.787 38.256C295.315 38.256 295.819 38.244 296.299 38.22C296.779 38.196 297.163 38.16 297.451 38.112V34.044C297.235 33.996 296.911 33.948 296.479 33.9C296.047 33.852 295.651 33.828 295.291 33.828C294.787 33.828 294.307 33.864 293.851 33.936C293.419 33.984 293.035 34.092 292.699 34.26C292.363 34.428 292.099 34.656 291.907 34.944C291.715 35.232 291.619 35.592 291.619 36.024C291.619 36.864 291.895 37.452 292.447 37.788C293.023 38.1 293.803 38.256 294.787 38.256ZM294.355 22.56C295.939 22.56 297.259 22.74 298.315 23.1C299.371 23.46 300.211 23.976 300.835 24.648C301.483 25.32 301.939 26.136 302.203 27.096C302.467 28.056 302.599 29.124 302.599 30.3V41.46C301.831 41.628 300.763 41.82 299.395 42.036C298.027 42.276 296.371 42.396 294.427 42.396C293.203 42.396 292.087 42.288 291.079 42.072C290.095 41.856 289.243 41.508 288.523 41.028C287.803 40.524 287.251 39.876 286.867 39.084C286.483 38.292 286.291 37.32 286.291 36.168C286.291 35.064 286.507 34.128 286.939 33.36C287.395 32.592 287.995 31.98 288.739 31.524C289.483 31.068 290.335 30.744 291.295 30.552C292.255 30.336 293.251 30.228 294.283 30.228C294.979 30.228 295.591 30.264 296.119 30.336C296.671 30.384 297.115 30.456 297.451 30.552V30.048C297.451 29.136 297.175 28.404 296.623 27.852C296.071 27.3 295.111 27.024 293.743 27.024C292.831 27.024 291.931 27.096 291.043 27.24C290.155 27.36 289.387 27.54 288.739 27.78L288.055 23.46C288.367 23.364 288.751 23.268 289.207 23.172C289.687 23.052 290.203 22.956 290.755 22.884C291.307 22.788 291.883 22.716 292.483 22.668C293.107 22.596 293.731 22.56 294.355 22.56ZM323.262 37.716C324.054 37.716 324.702 37.656 325.206 37.536C325.734 37.392 326.154 37.212 326.466 36.996C326.778 36.756 326.994 36.48 327.114 36.168C327.234 35.856 327.294 35.508 327.294 35.124C327.294 34.308 326.91 33.636 326.142 33.108C325.374 32.556 324.054 31.968 322.182 31.344C321.366 31.056 320.55 30.732 319.734 30.372C318.918 29.988 318.186 29.52 317.538 28.968C316.89 28.392 316.362 27.708 315.954 26.916C315.546 26.1 315.342 25.116 315.342 23.964C315.342 22.812 315.558 21.78 315.99 20.868C316.422 19.932 317.034 19.14 317.826 18.492C318.618 17.844 319.578 17.352 320.706 17.016C321.834 16.656 323.106 16.476 324.522 16.476C326.202 16.476 327.654 16.656 328.878 17.016C330.102 17.376 331.11 17.772 331.902 18.204L330.282 22.632C329.586 22.272 328.806 21.96 327.942 21.696C327.102 21.408 326.082 21.264 324.882 21.264C323.538 21.264 322.566 21.456 321.966 21.84C321.39 22.2 321.102 22.764 321.102 23.532C321.102 23.988 321.21 24.372 321.426 24.684C321.642 24.996 321.942 25.284 322.326 25.548C322.734 25.788 323.19 26.016 323.694 26.232C324.222 26.424 324.798 26.628 325.422 26.844C326.718 27.324 327.846 27.804 328.806 28.284C329.766 28.74 330.558 29.28 331.182 29.904C331.83 30.528 332.31 31.26 332.622 32.1C332.934 32.94 333.09 33.96 333.09 35.16C333.09 37.488 332.274 39.3 330.642 40.596C329.01 41.868 326.55 42.504 323.262 42.504C322.158 42.504 321.162 42.432 320.274 42.288C319.386 42.168 318.594 42.012 317.898 41.82C317.226 41.628 316.638 41.424 316.134 41.208C315.654 40.992 315.246 40.788 314.91 40.596L316.494 36.132C317.238 36.54 318.15 36.912 319.23 37.248C320.334 37.56 321.678 37.716 323.262 37.716ZM342.415 42H337.051V23.064H342.415V42ZM342.919 17.592C342.919 18.576 342.595 19.356 341.947 19.932C341.323 20.484 340.579 20.76 339.715 20.76C338.851 20.76 338.095 20.484 337.447 19.932C336.823 19.356 336.511 18.576 336.511 17.592C336.511 16.608 336.823 15.84 337.447 15.288C338.095 14.712 338.851 14.424 339.715 14.424C340.579 14.424 341.323 14.712 341.947 15.288C342.595 15.84 342.919 16.608 342.919 17.592ZM352.894 38.148C353.878 38.148 354.574 38.052 354.982 37.86C355.39 37.668 355.594 37.296 355.594 36.744C355.594 36.312 355.33 35.94 354.802 35.628C354.274 35.292 353.47 34.92 352.39 34.512C351.55 34.2 350.782 33.876 350.086 33.54C349.414 33.204 348.838 32.808 348.358 32.352C347.878 31.872 347.506 31.308 347.242 30.66C346.978 30.012 346.846 29.232 346.846 28.32C346.846 26.544 347.506 25.14 348.826 24.108C350.146 23.076 351.958 22.56 354.262 22.56C355.414 22.56 356.518 22.668 357.574 22.884C358.63 23.076 359.47 23.292 360.094 23.532L359.158 27.708C358.534 27.492 357.85 27.3 357.106 27.132C356.386 26.964 355.57 26.88 354.658 26.88C352.978 26.88 352.138 27.348 352.138 28.284C352.138 28.5 352.174 28.692 352.246 28.86C352.318 29.028 352.462 29.196 352.678 29.364C352.894 29.508 353.182 29.676 353.542 29.868C353.926 30.036 354.406 30.228 354.982 30.444C356.158 30.876 357.13 31.308 357.898 31.74C358.666 32.148 359.266 32.604 359.698 33.108C360.154 33.588 360.466 34.128 360.634 34.728C360.826 35.328 360.922 36.024 360.922 36.816C360.922 38.688 360.214 40.104 358.798 41.064C357.406 42.024 355.426 42.504 352.858 42.504C351.178 42.504 349.774 42.36 348.646 42.072C347.542 41.784 346.774 41.544 346.342 41.352L347.242 36.996C348.154 37.356 349.09 37.644 350.05 37.86C351.01 38.052 351.958 38.148 352.894 38.148ZM364.75 18.348L370.114 17.484V23.064H376.558V27.528H370.114V34.188C370.114 35.316 370.306 36.216 370.69 36.888C371.098 37.56 371.902 37.896 373.102 37.896C373.678 37.896 374.266 37.848 374.866 37.752C375.49 37.632 376.054 37.476 376.558 37.284L377.314 41.46C376.666 41.724 375.946 41.952 375.154 42.144C374.362 42.336 373.39 42.432 372.238 42.432C370.774 42.432 369.562 42.24 368.602 41.856C367.642 41.448 366.874 40.896 366.298 40.2C365.722 39.48 365.314 38.616 365.074 37.608C364.858 36.6 364.75 35.484 364.75 34.26V18.348ZM379.323 32.676C379.323 30.996 379.575 29.532 380.079 28.284C380.607 27.012 381.291 25.956 382.131 25.116C382.971 24.276 383.931 23.64 385.011 23.208C386.115 22.776 387.243 22.56 388.395 22.56C391.083 22.56 393.207 23.388 394.767 25.044C396.327 26.676 397.107 29.088 397.107 32.28C397.107 32.592 397.095 32.94 397.071 33.324C397.047 33.684 397.023 34.008 396.999 34.296H384.831C384.951 35.4 385.467 36.276 386.379 36.924C387.291 37.572 388.515 37.896 390.051 37.896C391.035 37.896 391.995 37.812 392.931 37.644C393.891 37.452 394.671 37.224 395.271 36.96L395.991 41.316C395.703 41.46 395.319 41.604 394.839 41.748C394.359 41.892 393.819 42.012 393.219 42.108C392.643 42.228 392.019 42.324 391.347 42.396C390.675 42.468 390.003 42.504 389.331 42.504C387.627 42.504 386.139 42.252 384.867 41.748C383.619 41.244 382.575 40.56 381.735 39.696C380.919 38.808 380.307 37.764 379.899 36.564C379.515 35.364 379.323 34.068 379.323 32.676ZM391.923 30.624C391.899 30.168 391.815 29.724 391.671 29.292C391.551 28.86 391.347 28.476 391.059 28.14C390.795 27.804 390.447 27.528 390.015 27.312C389.607 27.096 389.091 26.988 388.467 26.988C387.867 26.988 387.351 27.096 386.919 27.312C386.487 27.504 386.127 27.768 385.839 28.104C385.551 28.44 385.323 28.836 385.155 29.292C385.011 29.724 384.903 30.168 384.831 30.624H391.923ZM411.651 31.956C411.651 30.228 411.423 29.004 410.967 28.284C410.535 27.564 409.779 27.204 408.699 27.204C408.363 27.204 408.015 27.228 407.655 27.276C407.295 27.3 406.947 27.336 406.611 27.384V42H401.247V23.712C401.703 23.592 402.231 23.472 402.831 23.352C403.455 23.208 404.103 23.088 404.775 22.992C405.471 22.872 406.179 22.788 406.899 22.74C407.619 22.668 408.327 22.632 409.023 22.632C410.391 22.632 411.495 22.812 412.335 23.172C413.199 23.508 413.907 23.916 414.459 24.396C415.227 23.844 416.103 23.412 417.087 23.1C418.095 22.788 419.019 22.632 419.859 22.632C421.371 22.632 422.607 22.848 423.567 23.28C424.551 23.688 425.331 24.276 425.907 25.044C426.483 25.812 426.879 26.724 427.095 27.78C427.311 28.836 427.419 30.012 427.419 31.308V42H422.055V31.956C422.055 30.228 421.827 29.004 421.371 28.284C420.939 27.564 420.183 27.204 419.103 27.204C418.815 27.204 418.407 27.276 417.879 27.42C417.375 27.564 416.955 27.744 416.619 27.96C416.787 28.512 416.895 29.1 416.943 29.724C416.991 30.324 417.015 30.972 417.015 31.668V42H411.651V31.956ZM437.654 42H432.29V23.064H437.654V42ZM438.158 17.592C438.158 18.576 437.834 19.356 437.186 19.932C436.562 20.484 435.818 20.76 434.954 20.76C434.09 20.76 433.334 20.484 432.686 19.932C432.062 19.356 431.75 18.576 431.75 17.592C431.75 16.608 432.062 15.84 432.686 15.288C433.334 14.712 434.09 14.424 434.954 14.424C435.818 14.424 436.562 14.712 437.186 15.288C437.834 15.84 438.158 16.608 438.158 17.592Z" fill="white"/>
<rect width="60" height="60" rx="30" fill="#06D6A0"/>
<path fill-rule="evenodd" clip-rule="evenodd" d="M29.9974 12C28.4617 11.9969 26.9405 12.2901 25.5211 12.8626C24.1017 13.4352 22.8122 14.2758 21.7266 15.3363C21.6028 15.4537 21.5043 15.594 21.4366 15.749C21.369 15.904 21.3337 16.0706 21.3327 16.2391C21.3317 16.4076 21.3651 16.5746 21.4309 16.7303C21.4967 16.8861 21.5936 17.0275 21.716 17.1463C21.8383 17.2651 21.9837 17.3589 22.1436 17.4223C22.3035 17.4856 22.4747 17.5173 22.6473 17.5154C22.8198 17.5134 22.9903 17.478 23.1487 17.4111C23.307 17.3442 23.4502 17.2471 23.5698 17.1257C24.4132 16.2986 25.4157 15.6424 26.5196 15.1946C27.6235 14.7468 28.8072 14.5163 30.0026 14.5163C31.198 14.5163 32.3817 14.7468 33.4856 15.1946C34.5895 15.6424 35.592 16.2986 36.4354 17.1257C36.555 17.2471 36.6982 17.3442 36.8565 17.4111C37.0149 17.478 37.1854 17.5134 37.3579 17.5154C37.5305 17.5173 37.7017 17.4856 37.8616 17.4223C38.0215 17.3589 38.1669 17.2651 38.2892 17.1463C38.4116 17.0275 38.5085 16.8861 38.5743 16.7303C38.6401 16.5746 38.6735 16.4076 38.6725 16.2391C38.6715 16.0706 38.6362 15.904 38.5686 15.749C38.5009 15.594 38.4024 15.4537 38.2786 15.3363C37.1911 14.2758 35.9 13.4352 34.4792 12.8627C33.0583 12.2902 31.5345 11.997 29.9974 12ZM29.9974 17.0685C29.1458 17.0672 28.3023 17.2304 27.5155 17.5486C26.7287 17.8668 26.0141 18.3337 25.4129 18.9226C25.2885 19.0393 25.1891 19.1791 25.1206 19.3337C25.052 19.4884 25.0157 19.6548 25.0137 19.8232C25.0118 19.9917 25.0442 20.1589 25.1091 20.315C25.174 20.4711 25.2701 20.613 25.3918 20.7325C25.5135 20.852 25.6583 20.9466 25.8178 21.0108C25.9773 21.0751 26.1484 21.1077 26.321 21.1067C26.4935 21.1057 26.6642 21.0712 26.8229 21.0052C26.9817 20.9392 27.1254 20.8429 27.2457 20.7221C27.6067 20.3663 28.0363 20.0839 28.5097 19.8912C28.9831 19.6985 29.491 19.5993 30.0039 19.5993C30.5168 19.5993 31.0247 19.6985 31.4981 19.8912C31.9715 20.0839 32.4011 20.3663 32.7621 20.7221C32.8824 20.8429 33.0261 20.9392 33.1849 21.0052C33.3436 21.0712 33.5143 21.1057 33.6868 21.1067C33.8594 21.1077 34.0305 21.0751 34.19 21.0108C34.3495 20.9466 34.4943 20.852 34.616 20.7325C34.7377 20.613 34.8338 20.4711 34.8987 20.315C34.9636 20.1589 34.996 19.9917 34.9941 19.8232C34.9921 19.6548 34.9558 19.4884 34.8872 19.3337C34.8187 19.1791 34.7193 19.0393 34.5949 18.9226C33.9911 18.3337 33.2742 17.8669 32.4852 17.549C31.6963 17.231 30.8509 17.0682 29.9974 17.0698V17.0685ZM11.805 19.6168C11.4603 19.6168 11.1297 19.7505 10.8859 19.9885C10.6421 20.2265 10.5052 20.5492 10.5052 20.8858C10.5052 21.2224 10.6421 21.5452 10.8859 21.7831C11.1297 22.0211 11.4603 22.1548 11.805 22.1548H13.0997V24.934C11.5971 25.467 10.5 26.8693 10.5 28.5076V33.5736C10.5068 34.5833 10.9207 35.5497 11.6519 36.2637C12.3832 36.9776 13.3731 37.3817 14.4073 37.3883C16.5455 37.3883 18.3016 35.6612 18.3016 33.5736V32.3097H20.9012V33.5736C20.9012 35.3223 22.149 36.8033 23.8102 37.2411C22.8939 38.0691 22.1625 39.0729 21.6619 40.1896C21.1614 41.3064 20.9024 42.512 20.9012 43.731C20.9012 44.0675 21.0382 44.3903 21.2819 44.6283C21.5257 44.8663 21.8563 45 22.201 45C22.5458 45 22.8764 44.8663 23.1202 44.6283C23.3639 44.3903 23.5009 44.0675 23.5009 43.731C23.4981 42.8973 23.6643 42.0713 23.9898 41.3006C24.3153 40.5298 24.7937 39.8296 25.3975 39.2401C26.0013 38.6506 26.7186 38.1835 27.508 37.8657C28.2975 37.5479 29.1435 37.3856 29.9974 37.3883C30.8519 37.3853 31.6986 37.5472 32.4887 37.8648C33.2789 38.1824 33.997 38.6493 34.6017 39.2387C35.2064 39.8281 35.6858 40.5285 36.0123 41.2994C36.3388 42.0704 36.5061 42.8967 36.5043 43.731C36.5043 44.0675 36.6413 44.3903 36.885 44.6283C37.1288 44.8663 37.4594 45 37.8042 45C38.1489 45 38.4795 44.8663 38.7233 44.6283C38.967 44.3903 39.104 44.0675 39.104 43.731C39.1024 42.5124 38.843 41.3072 38.3419 40.1911C37.8409 39.075 37.1091 38.072 36.1924 37.2449C37.8562 36.8071 39.104 35.3249 39.104 33.5736V32.3097H41.7036V33.5736C41.7036 35.6612 43.4623 37.3883 45.6005 37.3883C47.7387 37.3883 49.4948 35.6612 49.4948 33.5736V28.5076C49.4948 26.8693 48.4055 25.4658 46.9055 24.9328V22.1548H48.2002C48.5449 22.1548 48.8755 22.0211 49.1193 21.7831C49.3631 21.5452 49.5 21.2224 49.5 20.8858C49.5 20.5492 49.3631 20.2265 49.1193 19.9885C48.8755 19.7505 48.5449 19.6168 48.2002 19.6168H42.9983C42.6535 19.6168 42.3229 19.7505 42.0792 19.9885C41.8354 20.2265 41.6984 20.5492 41.6984 20.8858C41.6984 21.2224 41.8354 21.5452 42.0792 21.7831C42.3229 22.0211 42.6535 22.1548 42.9983 22.1548H44.3059V24.9289C42.7994 25.4581 41.7036 26.8642 41.7036 28.5076V29.7716H39.104V28.5076C39.0978 27.4984 38.6845 26.5323 37.9535 25.8186C37.2226 25.105 36.233 24.7014 35.1993 24.6954H24.8085C23.7746 24.7014 22.7847 25.1049 22.0533 25.8185C21.322 26.532 20.908 27.4982 20.9012 28.5076V29.7716H18.3016V28.5076C18.3016 26.8655 17.2071 25.4581 15.7019 24.9289V22.1548H17.0069C17.3517 22.1548 17.6823 22.0211 17.926 21.7831C18.1698 21.5452 18.3068 21.2224 18.3068 20.8858C18.3068 20.5492 18.1698 20.2265 17.926 19.9885C17.6823 19.7505 17.3517 19.6168 17.0069 19.6168H11.805ZM27.4029 29.7716C27.7477 29.7716 28.0783 29.9053 28.3221 30.1433C28.5658 30.3813 28.7028 30.7041 28.7028 31.0406C28.7028 31.3772 28.5658 31.7 28.3221 31.938C28.0783 32.176 27.7477 32.3097 27.4029 32.3097C27.0582 32.3097 26.7276 32.176 26.4838 31.938C26.2401 31.7 26.1031 31.3772 26.1031 31.0406C26.1031 30.7041 26.2401 30.3813 26.4838 30.1433C26.7276 29.9053 27.0582 29.7716 27.4029 29.7716ZM32.6023 29.7716C32.947 29.7716 33.2776 29.9053 33.5214 30.1433C33.7651 30.3813 33.9021 30.7041 33.9021 31.0406C33.9021 31.3772 33.7651 31.7 33.5214 31.938C33.2776 32.176 32.947 32.3097 32.6023 32.3097C32.2575 32.3097 31.9269 32.176 31.6831 31.938C31.4394 31.7 31.3024 31.3772 31.3024 31.0406C31.3024 30.7041 31.4394 30.3813 31.6831 30.1433C31.9269 29.9053 32.2575 29.7716 32.6023 29.7716Z" fill="#0A1519"/>
</svg>
